<?xml version="1.0" encoding="UTF-8" standalone="no"?>
<svg
   xmlns:dc="http://purl.org/dc/elements/1.1/"
   xmlns:cc="http://creativecommons.org/ns#"
   xmlns:rdf="http://www.w3.org/1999/02/22-rdf-syntax-ns#"
   xmlns:svg="http://www.w3.org/2000/svg"
   xmlns="http://www.w3.org/2000/svg"
   xmlns:sodipodi="http://sodipodi.sourceforge.net/DTD/sodipodi-0.dtd"
   xmlns:inkscape="http://www.inkscape.org/namespaces/inkscape"
   id="svg"
   version="1.1"
   width="400"
   height="400"
   viewBox="0 0 400 400.00001"
   sodipodi:docname="icon.svg"
   inkscape:version="0.92.4 (5da689c313, 2019-01-14)"
   inkscape:export-filename="icon.png"
   inkscape:export-xdpi="95.847031"
   inkscape:export-ydpi="95.847031">
  <metadata
     id="metadata10">
    <rdf:RDF>
      <cc:Work
         rdf:about="">
        <dc:format>image/svg+xml</dc:format>
        <dc:type
           rdf:resource="http://purl.org/dc/dcmitype/StillImage" />
        <dc:title />
      </cc:Work>
    </rdf:RDF>
  </metadata>
  <defs
     id="defs8" />
  <sodipodi:namedview
     pagecolor="#ffffff"
     bordercolor="#666666"
     borderopacity="1"
     objecttolerance="10"
     gridtolerance="10"
     guidetolerance="10"
     inkscape:pageopacity="0"
     inkscape:pageshadow="2"
     inkscape:window-width="1920"
     inkscape:window-height="1016"
     id="namedview6"
     showgrid="false"
     inkscape:zoom="0.70710678"
     inkscape:cx="-105.99287"
     inkscape:cy="165.5303"
     inkscape:window-x="0"
     inkscape:window-y="27"
     inkscape:window-maximized="1"
     inkscape:current-layer="g822"
     inkscape:pagecheckerboard="true"
     inkscape:showpageshadow="false"
     borderlayer="false"
     showborder="true" />
  <g
     inkscape:groupmode="layer"
     id="layer1"
     inkscape:label="fond"
     style="display:inline">
    <rect
       style="fill:#69997d;fill-opacity:1;stroke:none"
       id="rect4620"
       width="400"
       height="400"
       x="0"
       y="0"
       rx="50"
       ry="50" />
  </g>
  <g
     inkscape:groupmode="layer"
     id="layer2"
     inkscape:label="ombre"
     style="display:inline"
     transform="translate(0,-5.7970886)">
    <path
       style="fill:#000000;fill-opacity:0.30125523;stroke-width:0.92811799"
       d="m 224.22535,406.12926 66.16917,-67.86243 c -1.20521,-82.29151 0.14013,-262.721299 0.14013,-262.721299 L 107.525,75.649911 -0.0085224,182.7142 0,405.79709 Z"
       id="rect4599"
       inkscape:connector-curvature="0"
       sodipodi:nodetypes="ccccccc" />
  </g>
  <g
     transform="translate(0,-5.7970886)"
     style="display:inline"
     inkscape:label="shadow-smartphone"
     id="g822"
     inkscape:groupmode="layer">
    <g
       id="g820"
       transform="translate(1.3960029,13.441428)"
       style="fill:#000000;fill-opacity:0.4013378">
      <path
         d="m 118.5,60.607 c -8.163,1.773 -14.9,8.455 -17.41,17.267 L 100.2,81 100.088,190 c -0.117,115.001 -0.005,124.505 1.527,129.4 2.484,7.935 6.983,12.748 14.737,15.769 l 2.648,1.031 78.512,0.106 c 85.219,0.115 80.701,0.222 85.737,-2.035 5.212,-2.336 9.823,-7.218 11.765,-12.457 2.303,-6.213 2.206,-0.373 2.091,-125.692 L 297,81 296.099,77.8 C 293.303,67.868 286.622,61.787 277,60.415 272.298,59.745 121.629,59.927 118.5,60.607 m 158.1,31.114 c 2.023,0.912 3.634,2.435 4.737,4.479 l 0.863,1.6 v 98 98 l -0.92,1.995 c -1.454,3.157 -3.536,4.888 -6.693,5.569 -0.666,0.144 -34.776,0.285 -75.8,0.315 -83.803,0.06 -77.212,0.296 -80.387,-2.879 -3.283,-3.283 -3,6.446 -3,-103 V 98.6 l 0.915,-1.985 c 1.445,-3.135 3.209,-4.535 6.779,-5.382 3.317,-0.788 151.724,-0.315 153.506,0.488 m -83.366,41.487 c -4.059,0.857 -5.787,2.871 -7.67,8.933 -2.594,8.354 -10.913,12.281 -17.981,8.487 -5.653,-3.035 -6.155,-3.228 -8.382,-3.224 -2.935,0.006 -4.808,0.984 -8.019,4.191 -5.135,5.127 -5.544,7.776 -2.189,14.173 5.059,9.648 2.418,17.434 -7.134,21.034 -6.648,2.504 -7.626,3.183 -8.87,6.162 -0.799,1.913 -0.916,8.39 -0.199,11.036 0.78,2.875 3.04,4.735 7.712,6.346 10.869,3.746 14.068,10.922 9.298,20.854 -3.375,7.027 -2.928,9.71 2.472,14.85 5.019,4.777 7.351,5.06 14,1.699 9.871,-4.991 17.01,-2.16 20.298,8.051 2.306,7.16 4.964,8.903 12.989,8.516 5.866,-0.282 8.144,-1.816 9.861,-6.639 1.757,-4.937 2.409,-6.245 3.995,-8.009 4.75,-5.283 10.467,-5.98 17.717,-2.161 6.581,3.467 9.144,3.078 14.319,-2.174 5.207,-5.285 5.515,-7.6 1.92,-14.453 -5.188,-9.891 -1.701,-17.31 10.022,-21.324 5.338,-1.827 7.134,-4.617 7.181,-11.156 0.046,-6.427 -2.097,-9.305 -8.685,-11.661 -6.369,-2.279 -8.714,-4.474 -10.337,-9.679 -1.364,-4.374 -1.053,-5.69 3.002,-12.725 2.488,-4.316 1.561,-8.235 -3.036,-12.832 -5.09,-5.09 -7.85,-5.449 -14.827,-1.93 -9.66,4.872 -17.937,1.304 -21.045,-9.072 -1.885,-6.292 -8.093,-9.051 -16.412,-7.293 m 12.366,39.653 c 22.016,4.241 26.956,36.687 7.349,48.269 -18.397,10.867 -40.277,-1.474 -40.3,-22.73 -0.02,-18.101 14.23,-29.146 32.951,-25.539 m -2.307,137.777 c 4.04,2.84 5.399,7.946 3.236,12.16 -4.269,8.311 -16.271,5.214 -16.266,-4.198 0.004,-7.206 7.547,-11.816 13.03,-7.962"
         id="path818"
         inkscape:connector-curvature="0"
         style="fill:#000000;fill-opacity:0.4013378;fill-rule:evenodd;stroke:none" />
    </g>
  </g>
  <g
     inkscape:groupmode="layer"
     id="layer3"
     inkscape:label="smartphone"
     style="display:inline"
     transform="translate(0,-5.7970886)">
    <g
       transform="translate(1.3964928,7.6216827)"
       id="svgg">
      <path
         style="fill:#f8f8f8;fill-rule:evenodd;stroke:none"
         inkscape:connector-curvature="0"
         id="path1"
         d="m 118.5,60.607 c -8.163,1.773 -14.9,8.455 -17.41,17.267 L 100.2,81 100.088,190 c -0.117,115.001 -0.005,124.505 1.527,129.4 2.484,7.935 6.983,12.748 14.737,15.769 l 2.648,1.031 78.512,0.106 c 85.219,0.115 80.701,0.222 85.737,-2.035 5.212,-2.336 9.823,-7.218 11.765,-12.457 2.303,-6.213 2.206,-0.373 2.091,-125.692 L 297,81 296.099,77.8 C 293.303,67.868 286.622,61.787 277,60.415 272.298,59.745 121.629,59.927 118.5,60.607 m 158.1,31.114 c 2.023,0.912 3.634,2.435 4.737,4.479 l 0.863,1.6 v 98 98 l -0.92,1.995 c -1.454,3.157 -3.536,4.888 -6.693,5.569 -0.666,0.144 -34.776,0.285 -75.8,0.315 -83.803,0.06 -77.212,0.296 -80.387,-2.879 -3.283,-3.283 -3,6.446 -3,-103 V 98.6 l 0.915,-1.985 c 1.445,-3.135 3.209,-4.535 6.779,-5.382 3.317,-0.788 151.724,-0.315 153.506,0.488 m -83.366,41.487 c -4.059,0.857 -5.787,2.871 -7.67,8.933 -2.594,8.354 -10.913,12.281 -17.981,8.487 -5.653,-3.035 -6.155,-3.228 -8.382,-3.224 -2.935,0.006 -4.808,0.984 -8.019,4.191 -5.135,5.127 -5.544,7.776 -2.189,14.173 5.059,9.648 2.418,17.434 -7.134,21.034 -6.648,2.504 -7.626,3.183 -8.87,6.162 -0.799,1.913 -0.916,8.39 -0.199,11.036 0.78,2.875 3.04,4.735 7.712,6.346 10.869,3.746 14.068,10.922 9.298,20.854 -3.375,7.027 -2.928,9.71 2.472,14.85 5.019,4.777 7.351,5.06 14,1.699 9.871,-4.991 17.01,-2.16 20.298,8.051 2.306,7.16 4.964,8.903 12.989,8.516 5.866,-0.282 8.144,-1.816 9.861,-6.639 1.757,-4.937 2.409,-6.245 3.995,-8.009 4.75,-5.283 10.467,-5.98 17.717,-2.161 6.581,3.467 9.144,3.078 14.319,-2.174 5.207,-5.285 5.515,-7.6 1.92,-14.453 -5.188,-9.891 -1.701,-17.31 10.022,-21.324 5.338,-1.827 7.134,-4.617 7.181,-11.156 0.046,-6.427 -2.097,-9.305 -8.685,-11.661 -6.369,-2.279 -8.714,-4.474 -10.337,-9.679 -1.364,-4.374 -1.053,-5.69 3.002,-12.725 2.488,-4.316 1.561,-8.235 -3.036,-12.832 -5.09,-5.09 -7.85,-5.449 -14.827,-1.93 -9.66,4.872 -17.937,1.304 -21.045,-9.072 -1.885,-6.292 -8.093,-9.051 -16.412,-7.293 m 12.366,39.653 c 22.016,4.241 26.956,36.687 7.349,48.269 -18.397,10.867 -40.277,-1.474 -40.3,-22.73 -0.02,-18.101 14.23,-29.146 32.951,-25.539 m -2.307,137.777 c 4.04,2.84 5.399,7.946 3.236,12.16 -4.269,8.311 -16.271,5.214 -16.266,-4.198 0.004,-7.206 7.547,-11.816 13.03,-7.962" />
    </g>
  </g>
</svg>
